<svg width="60" height="32" viewBox="0 0 60 32" fill="none" xmlns="http://www.w3.org/2000/svg">
<g filter="url(#filter0_d)">
<path d="M48.4467 23H11.3829C11.0228 23 10.7028 22.7749 10.5861 22.4403L5.04553 6.55107C4.89515 6.1179 5.1294 5.64729 5.56947 5.49848C5.70443 5.45346 5.84517 5.44208 5.97579 5.46483C6.28042 5.48237 6.56431 5.66341 6.6959 5.95724C7.38082 7.48659 9.81733 12.4239 12.6597 12.4239C12.6949 12.4239 12.7305 12.423 12.7667 12.4211C14.4812 12.3462 17.1625 10.4007 20.2006 1.56302C20.3167 1.22654 20.6373 1 20.9983 1C21.3598 1 21.6803 1.22654 21.7965 1.56302C22.8337 4.5767 26.3104 12.3751 29.9206 12.3751C29.9302 12.3751 29.9394 12.3746 29.9495 12.3746C31.6611 12.3543 34.2928 10.4657 37.111 1.5815C37.2214 1.23507 37.5468 1 37.9155 1H37.9237C38.2958 1.00379 38.6211 1.24644 38.7243 1.59762C39.5856 4.51414 42.6405 12.1533 46.3876 12.4723C48.5768 12.6495 51.0042 10.2135 53.4007 5.4018C53.5954 5.00892 54.0687 4.83215 54.4799 5.00039C54.8901 5.16768 55.0983 5.61981 54.9547 6.03402L49.2439 22.4403C49.1268 22.7754 48.8068 23 48.4467 23ZM11.9844 21.3436H47.8442L51.1445 11.8623C49.5495 13.522 47.93 14.2623 46.2411 14.1229C42.0911 13.768 39.2434 7.888 37.9194 4.43168C35.5807 10.8505 32.9697 13.9959 29.9688 14.0305C29.9524 14.0305 29.937 14.0315 29.9206 14.0315C25.7267 14.0315 22.4891 7.70981 21.0224 4.22268C18.5198 10.7159 15.8341 13.9443 12.8414 14.076C11.3072 14.1343 9.97109 13.3827 8.82055 12.2675L11.9844 21.3436Z" fill="#A07B50"/>
<path d="M48.4467 23H11.3829C11.0228 23 10.7028 22.7749 10.5861 22.4403L5.04553 6.55107C4.89515 6.1179 5.1294 5.64729 5.56947 5.49848C5.70443 5.45346 5.84517 5.44208 5.97579 5.46483C6.28042 5.48237 6.56431 5.66341 6.6959 5.95724C7.38082 7.48659 9.81733 12.4239 12.6597 12.4239C12.6949 12.4239 12.7305 12.423 12.7667 12.4211C14.4812 12.3462 17.1625 10.4007 20.2006 1.56302C20.3167 1.22654 20.6373 1 20.9983 1C21.3598 1 21.6803 1.22654 21.7965 1.56302C22.8337 4.5767 26.3104 12.3751 29.9206 12.3751C29.9302 12.3751 29.9394 12.3746 29.9495 12.3746C31.6611 12.3543 34.2928 10.4657 37.111 1.5815C37.2214 1.23507 37.5468 1 37.9155 1H37.9237C38.2958 1.00379 38.6211 1.24644 38.7243 1.59762C39.5856 4.51414 42.6405 12.1533 46.3876 12.4723C48.5768 12.6495 51.0042 10.2135 53.4007 5.4018C53.5954 5.00892 54.0687 4.83215 54.4799 5.00039C54.8901 5.16768 55.0983 5.61981 54.9547 6.03402L49.2439 22.4403C49.1268 22.7754 48.8068 23 48.4467 23ZM11.9844 21.3436H47.8442L51.1445 11.8623C49.5495 13.522 47.93 14.2623 46.2411 14.1229C42.0911 13.768 39.2434 7.888 37.9194 4.43168C35.5807 10.8505 32.9697 13.9959 29.9688 14.0305C29.9524 14.0305 29.937 14.0315 29.9206 14.0315C25.7267 14.0315 22.4891 7.70981 21.0224 4.22268C18.5198 10.7159 15.8341 13.9443 12.8414 14.076C11.3072 14.1343 9.97109 13.3827 8.82055 12.2675L11.9844 21.3436Z" stroke="#1F1C1D" stroke-width="0.8"/>
</g>
<defs>
<filter id="filter0_d" x="0.599731" y="0.600098" width="58.8005" height="30.8" filterUnits="userSpaceOnUse" color-interpolation-filters="sRGB">
<feFlood flood-opacity="0" result="BackgroundImageFix"/>
<feColorMatrix in="SourceAlpha" type="matrix" values="0 0 0 0 0 0 0 0 0 0 0 0 0 0 0 0 0 0 127 0"/>
<feOffset dy="4"/>
<feGaussianBlur stdDeviation="2"/>
<feColorMatrix type="matrix" values="0 0 0 0 0 0 0 0 0 0 0 0 0 0 0 0 0 0 0.25 0"/>
<feBlend mode="normal" in2="BackgroundImageFix" result="effect1_dropShadow"/>
<feBlend mode="normal" in="SourceGraphic" in2="effect1_dropShadow" result="shape"/>
</filter>
</defs>
</svg>
